<svg id="natlas_logo_svg" x="0px" y="0px" viewBox="0 0 1000 600">
    <style>
        .st0 { fill: url(#SVGID_1_); }
        .st1 { fill: url(#SVGID_2_); }
        .st2 { fill: url(#SVGID_3_); }
        .st3 { fill: url(#SVGID_4_); }
        .st4 { fill: url(#SVGID_5_); }
        .st5 { fill: url(#SVGID_6_); }
        .st6 { fill: #b6e7ff; }
        .st7 { fill: none; }

        .st8 {
            opacity: 0.25;
            fill: #0062b9;
        }
        .st9 { fill: #ed1e79; }
        .st10 { fill: url(#SVGID_7_); }
    </style>
    <g id="natlas-logo-text">
    <linearGradient id="SVGID_1_" gradientUnits="userSpaceOnUse" x1="347.6654" y1="535.627" x2="347.6654" y2="458.8203">
        <stop  offset="0" style="stop-color: #0062b9;"/>
        <stop  offset="0.9987" style="stop-color: #7200e7;"/>
    </linearGradient>
    <path class="st0" d="M379.97,459.68v75.08c0,0.38-0.38,0.86-1.06,0.86h-12.67c-0.19,0-0.77-0.1-0.86-0.29l-35.33-50.6v32.45h-14.69
        v-57.51c0-0.38,0.48-0.86,0.96-0.86h12.77c0.19,0,0.77,0.1,0.86,0.29l35.43,50.6v-50.02c0-0.38,0.48-0.86,1.15-0.86h12.38
        C379.59,458.82,379.97,459.3,379.97,459.68z"/>
    <linearGradient id="SVGID_2_" gradientUnits="userSpaceOnUse" x1="425.819" y1="535.627" x2="425.819" y2="458.8208">
        <stop  offset="0" style="stop-color: #0062b9;"/>
        <stop  offset="0.9987" style="stop-color: #7200e7;"/>
    </linearGradient>
    <path class="st1" d="M455.06,535.63h-13.25c-0.29,0-0.77-0.19-0.86-0.58l-15.17-42.82l-14.98,42.82c-0.1,0.38-0.58,0.58-0.96,0.58
        h-13.15c-0.86,0-1.25-0.58-0.96-1.15l29.09-75.08c0.29-0.77,1.63-0.77,1.92,0l29.19,75.08
        C456.21,535.05,455.73,535.63,455.06,535.63z"/>
    <linearGradient id="SVGID_3_" gradientUnits="userSpaceOnUse" x1="484.4779" y1="535.627" x2="484.4779" y2="458.8203">
        <stop  offset="0" style="stop-color: #0062b9;"/>
        <stop  offset="0.9987" style="stop-color: #7200e7;"/>
    </linearGradient>
    <path class="st2" d="M461.39,471.11v-11.43c0-0.38,0.48-0.86,1.06-0.86h44.07c0.67,0,1.06,0.48,1.06,0.86v11.43
        c0,0.48-0.38,0.86-1.06,0.86h-44.07C461.87,471.97,461.39,471.59,461.39,471.11z M491.82,486.66v48.1c0,0.38-0.48,0.86-1.15,0.86
        h-12.38c-0.67,0-1.06-0.48-1.06-0.86v-48.1H491.82z"/>
    <linearGradient id="SVGID_4_" gradientUnits="userSpaceOnUse" x1="543.5326" y1="535.627" x2="543.5326" y2="458.8203">
        <stop  offset="0" style="stop-color: #0062b9;"/>
        <stop  offset="0.9987" style="stop-color: #7200e7;"/>
    </linearGradient>
    <path class="st3" d="M522.27,506.63v-46.95c0-0.38,0.48-0.86,1.06-0.86H536c0.58,0,0.96,0.48,0.96,0.86v46.95H522.27z
         M564.8,522.28v12.48c0,0.38-0.38,0.86-1.06,0.86h-40.42c-0.58,0-1.06-0.48-1.06-0.86v-13.44h14.69h26.79
        C564.41,521.32,564.8,521.8,564.8,522.28z"/>
    <linearGradient id="SVGID_5_" gradientUnits="userSpaceOnUse" x1="607.5903" y1="535.627" x2="607.5903" y2="458.8208">
        <stop  offset="0" style="stop-color: #0062b9;"/>
        <stop  offset="0.9987" style="stop-color: #7200e7;"/>
    </linearGradient>
    <path class="st4" d="M636.83,535.63h-13.25c-0.29,0-0.77-0.19-0.86-0.58l-15.17-42.82l-14.98,42.82c-0.1,0.38-0.58,0.58-0.96,0.58
        h-13.15c-0.86,0-1.25-0.58-0.96-1.15l29.09-75.08c0.29-0.77,1.63-0.77,1.92,0l29.19,75.08
        C637.98,535.05,637.5,535.63,636.83,535.63z"/>
    <linearGradient id="SVGID_6_" gradientUnits="userSpaceOnUse" x1="665.0179" y1="535.627" x2="665.0179" y2="458.8203">
        <stop  offset="0" style="stop-color: #0062b9;"/>
        <stop  offset="0.9987" style="stop-color: #7200e7;"/>
    </linearGradient>
    <path class="st5" d="M688.88,513.26c0,14.4-11.52,22.37-23.81,22.37c0,0,0,0-0.1,0V521.8c0.1,0,0.1,0,0.1,0
        c5.09,0,9.6-3.46,9.6-8.54c0-5.67-5.28-9.12-9.6-9.31c-0.67,0-5.86,0-11.43-2.59c-7.97-3.65-12.48-10.46-12.48-19.39
        c0-14.4,11.62-23.14,23.91-23.14c13.15,0,23.33,8.83,23.52,21.89c0.1,0.29-0.38,0.77-1.06,0.77h-12c-0.58,0-1.06-0.48-1.06-0.77
        c-0.19-5.47-4.42-8.07-9.41-8.07c-5.28,0-9.6,3.17-9.6,9.31c0,5.57,4.71,8.45,9.6,8.45c0.48,0,5.86,0,11.33,2.59
        C684.46,496.74,688.88,504.23,688.88,513.26z"/>
    </g>
    <g id="natlas-logo-underlay">
        <circle class="st6" cx="502.12" cy="292.74" r="76"/>
    </g>
    <g id="natlas-logo-outer-ring">
        <path class="st9" d="M638,280.77c-4.61-39.51-26.12-73.92-57.09-95.81c-22.3-15.76-49.47-25.06-78.79-25.06
        c-29.32,0-56.5,9.3-78.79,25.06c-31.36,22.17-53.04,57.16-57.28,97.3c-0.5,4.76-0.77,9.59-0.77,14.48
        c0,54.25,31.74,101.23,77.62,123.35c17.93,8.64,38.02,13.49,59.22,13.49c21.48,0,41.82-4.99,59.93-13.85
        c45.5-22.26,76.91-69.02,76.91-122.99C638.96,291.33,638.61,286.01,638,280.77z M547.95,412.82c-14.2,5.63-29.66,8.76-45.84,8.76
        c-15.79,0-30.88-2.97-44.8-8.34c-46.77-18.05-80.05-63.45-80.05-116.5c0-7.92,0.77-15.66,2.19-23.17
        c5.46-28.97,20.94-54.43,42.71-72.63c21.67-18.12,49.55-29.05,79.95-29.05c30.39,0,58.27,10.93,79.94,29.04
        c21.53,18,36.92,43.1,42.54,71.67c1.54,7.81,2.36,15.87,2.36,24.12C626.96,349.39,594.17,394.51,547.95,412.82z"/>
    </g>
    <g id="natlas-logo-inner-ring">
        <path class="st7" d="M601.02,265.53c8.33,1.15,16.27,3.56,23.58,7.08c-5.62-28.57-21-53.68-42.54-71.67
            c-0.23,8.63-1.85,16.9-4.6,24.64C588.09,236.82,596.25,250.43,601.02,265.53z"/>
        <path class="st7" d="M425.43,265.32c2.82-7.13,6.67-13.94,11.54-20.21c-2.59-3.64-4.89-7.5-6.85-11.56
            c-7.99,9.09-14.28,19.69-18.4,31.32c1.41-0.07,2.82-0.13,4.25-0.13C419.17,264.74,422.32,264.95,425.43,265.32z"/>
        <path class="st7" d="M588.84,332.04c-3.76,0-7.28,1.49-9.9,4.19c-5,5.14-5.17,13.21-0.6,18.56c0.28,0.33,0.57,0.65,0.89,0.96
            c1.63,1.58,3.58,2.71,5.7,3.34c1.26,0.37,2.57,0.56,3.91,0.56c3.76,0,7.28-1.49,9.9-4.19c2.57-2.65,3.95-6.13,3.9-9.82
            c-0.05-3.69-1.54-7.13-4.19-9.7c-0.08-0.08-0.18-0.15-0.26-0.23c-1.99-1.84-4.43-3.03-7.06-3.47
            C590.38,332.12,589.62,332.04,588.84,332.04z M595.87,352.68c-1.92,1.98-4.48,2.97-7.03,2.97c-2.46,0-4.92-0.92-6.83-2.77
            c-3.88-3.77-3.98-9.98-0.2-13.86c1.92-1.98,4.48-2.97,7.03-2.97c2.46,0,4.92,0.92,6.83,2.77
            C599.55,342.59,599.65,348.79,595.87,352.68z"/>
        <path class="st7" d="M579.95,265.39c3.28-0.41,6.62-0.65,10.02-0.65c0.85,0,1.69,0.05,2.53,0.07
            c-4.11-11.61-10.4-22.19-18.38-31.27c-1.83,3.78-3.95,7.38-6.33,10.8C572.96,250.85,577.01,257.95,579.95,265.39z"/>
        <path class="st7" d="M488.92,201.8c0.66,2.16,1.85,4.2,3.58,5.88c2.59,2.52,6.01,3.9,9.62,3.9c3.76,0,7.28-1.49,9.9-4.19
            c1.56-1.6,2.67-3.52,3.3-5.6c0.41-1.35,0.62-2.77,0.6-4.22c-0.02-1.26-0.22-2.5-0.56-3.68c-0.66-2.26-1.89-4.34-3.62-6.02
            c-2.59-2.52-6.01-3.9-9.62-3.9h0c-3.76,0-7.28,1.49-9.9,4.19c-1.62,1.67-2.73,3.65-3.34,5.74
            C488.12,196.48,488.14,199.23,488.92,201.8z M495.08,190.94c1.92-1.98,4.48-2.97,7.03-2.97c2.46,0,4.92,0.92,6.83,2.77
            c3.88,3.77,3.98,9.98,0.2,13.86c-1.92,1.98-4.48,2.97-7.03,2.97c-2.46,0-4.92-0.92-6.83-2.77
            C491.4,201.04,491.31,194.83,495.08,190.94z"/>
        <path class="st7" d="M502.67,379.08c-4.66,0-9.31-0.41-13.92-1.19c-2.01,4.39-4.39,8.56-7.12,12.48
            c6.6,1.44,13.45,2.23,20.48,2.23c7.55,0,14.89-0.91,21.95-2.56c-2.65-3.85-4.97-7.94-6.93-12.24
            C512.35,378.64,507.51,379.08,502.67,379.08z"/>
        <path class="st7" d="M426.78,225.57c-2.75-7.74-4.37-16.01-4.6-24.64c-21.77,18.2-37.25,43.66-42.71,72.63
            c7.3-3.75,15.26-6.39,23.65-7.76C407.88,250.59,416.08,236.89,426.78,225.57z"/>
        <path class="st7" d="M495.97,344.74c0,9.65-1.72,18.9-4.87,27.46c7.86,1.18,15.86,1.15,23.7-0.09
            c-3.12-8.54-4.84-17.75-4.84-27.37c0-38.67,27.44-70.93,63.9-78.38c-2.48-5.99-5.76-11.72-9.82-17.05
            c-14.66,17.95-36.95,29.43-61.94,29.43c-24.67,0-46.7-11.17-61.37-28.73c-3.79,5.1-6.87,10.56-9.23,16.25
            C468.25,273.5,495.97,305.88,495.97,344.74z"/>
        <path class="st7" d="M529.26,396.82c-8.66,2.35-17.75,3.63-27.14,3.63c-8.89,0-17.52-1.13-25.77-3.24
            c-5.46,6.28-11.87,11.7-19.03,16.03c13.91,5.37,29.01,8.34,44.8,8.34c16.18,0,31.63-3.13,45.84-8.76
            C540.92,408.47,534.62,403.06,529.26,396.82z"/>
        <path class="st8" d="M443.89,354.77c-24.14-24.14-30.29-59.56-18.47-89.45c-3.1-0.37-6.26-0.58-9.46-0.58
            c-1.43,0-2.84,0.05-4.25,0.13c-3.53,9.98-5.46,20.69-5.46,31.86c0,12.5,2.43,24.43,6.8,35.39c0.82-0.15,1.67-0.24,2.52-0.24h0
            c3.61,0,7.02,1.39,9.62,3.9c5.3,5.15,5.56,13.54,0.72,19.02c13.56,17.75,33.17,30.64,55.73,35.57c2.73-3.92,5.11-8.1,7.12-12.48
            C472.32,375.12,456.55,367.43,443.89,354.77z"/>
        <path class="st8" d="M431.52,266.27c-11.65,28-6.12,61.52,16.62,84.26c12.09,12.09,27.23,19.31,42.96,21.68
            c3.14-8.56,4.87-17.81,4.87-27.46C495.97,305.88,468.25,273.5,431.52,266.27z"/>
        <path class="st8" d="M476.35,397.2c-23.13-5.93-43.16-19.67-57.12-38.22c-1.18,0.32-2.4,0.5-3.66,0.5c-3.61,0-7.03-1.39-9.62-3.9
            c-5.46-5.3-5.59-14.06-0.29-19.52c0.12-0.12,0.25-0.23,0.37-0.35c-4.91-12.05-7.63-25.2-7.63-38.99c0-10.77,1.65-21.15,4.71-30.93
            c-8.39,1.36-16.35,4-23.65,7.76c-1.42,7.51-2.19,15.25-2.19,23.17c0,53.05,33.28,98.46,80.05,116.5
            C464.48,408.9,470.89,403.48,476.35,397.2z"/>
        <path class="st8" d="M502.12,278.74c24.99,0,47.28-11.47,61.94-29.43c-2.08-2.73-4.35-5.37-6.84-7.86
            c-15.04-15.04-34.79-22.55-54.54-22.55s-39.5,7.52-54.54,22.55c-2.71,2.71-5.16,5.57-7.38,8.56
            C455.41,267.57,477.45,278.74,502.12,278.74z"/>
        <path class="st8" d="M502.11,211.58c-3.61,0-7.03-1.39-9.62-3.9c-1.73-1.68-2.93-3.72-3.58-5.88
            c-23.32,3.23-43.97,14.86-58.81,31.75c1.96,4.06,4.26,7.92,6.85,11.56c2.12-2.74,4.42-5.38,6.93-7.89
            c32.41-32.41,85.15-32.41,117.56,0c2.28,2.28,4.38,4.67,6.34,7.14c2.38-3.42,4.5-7.02,6.33-10.8
            c-14.84-16.89-35.49-28.52-58.81-31.75c-0.63,2.08-1.74,3.99-3.3,5.6C509.39,210.09,505.88,211.58,502.11,211.58z"/>
        <path class="st8" d="M488.88,193.9c0.61-2.09,1.72-4.07,3.34-5.74c2.62-2.7,6.14-4.19,9.9-4.19h0c3.61,0,7.02,1.39,9.62,3.9
            c1.74,1.69,2.96,3.76,3.62,6.02c24.33,3.12,46.05,14.69,62.1,31.68c2.75-7.74,4.37-16.01,4.6-24.64
            c-21.67-18.12-49.55-29.04-79.94-29.04c-30.39,0-58.27,10.93-79.95,29.05c0.23,8.63,1.85,16.9,4.6,24.64
            C442.83,208.58,464.54,197.01,488.88,193.9z"/>
        <path class="st8" d="M579.95,265.39c11.78,29.88,5.63,65.26-18.49,89.38c-12.52,12.52-28.07,20.18-44.31,23.03
            c1.96,4.29,4.28,8.39,6.93,12.24c21.94-5.16,41-17.87,54.27-35.24c-4.56-5.35-4.39-13.42,0.6-18.56c2.62-2.7,6.14-4.19,9.9-4.19
            c0.78,0,1.54,0.08,2.29,0.2c4.4-10.99,6.85-22.97,6.85-35.51c0-11.19-1.95-21.93-5.48-31.92c-0.84-0.03-1.68-0.07-2.53-0.07
            C586.57,264.74,583.23,264.98,579.95,265.39z"/>
        <path class="st8" d="M509.97,344.74c0,9.62,1.71,18.83,4.84,27.37c15.53-2.45,30.46-9.64,42.41-21.58
            c22.71-22.72,28.26-56.19,16.66-84.17C537.4,273.81,509.97,306.07,509.97,344.74z"/>
        <path class="st8" d="M601.02,265.53c3.11,9.85,4.8,20.33,4.8,31.2c0,13.79-2.73,26.94-7.63,38.98c0.09,0.08,0.18,0.15,0.26,0.23
            c2.65,2.57,4.13,6.01,4.19,9.7c0.05,3.69-1.33,7.17-3.9,9.82c-2.62,2.7-6.14,4.19-9.9,4.19c-1.34,0-2.66-0.19-3.91-0.56
            c-13.68,18.12-33.17,31.62-55.67,37.73c5.36,6.24,11.66,11.66,18.7,16c46.22-18.31,79.01-63.43,79.01-116.09
            c0-8.25-0.83-16.31-2.36-24.12C617.29,269.09,609.36,266.69,601.02,265.53z"/>
        <path class="st9" d="M406.25,296.73c0-11.17,1.94-21.89,5.46-31.86c4.11-11.63,10.41-22.23,18.4-31.32
            c14.84-16.89,35.49-28.52,58.81-31.75c-0.78-2.57-0.79-5.32-0.04-7.9c-24.33,3.12-46.04,14.69-62.1,31.68
            c-10.7,11.32-18.9,25.02-23.66,40.23c-3.06,9.77-4.71,20.16-4.71,30.93c0,13.79,2.73,26.94,7.63,38.99
            c1.96-1.88,4.38-3.12,7.01-3.6C408.68,321.16,406.25,309.23,406.25,296.73z">
        </path>
        <path class="st9" d="M515.35,193.9c0.34,1.18,0.54,2.41,0.56,3.68c0.02,1.45-0.19,2.87-0.6,4.22
            c23.32,3.23,43.97,14.86,58.81,31.75c7.97,9.08,14.26,19.66,18.38,31.27c3.54,9.99,5.48,20.73,5.48,31.92
            c0,12.55-2.45,24.52-6.85,35.51c2.63,0.44,5.07,1.63,7.06,3.47c4.9-12.04,7.63-25.2,7.63-38.98c0-10.87-1.69-21.35-4.8-31.2
            c-4.78-15.1-12.93-28.71-23.57-39.96C561.4,208.58,539.69,197.01,515.35,193.9z"/>
        <path class="st9" d="M578.33,354.79c-13.27,17.37-32.32,30.08-54.27,35.24c-7.05,1.66-14.39,2.56-21.95,2.56
            c-7.03,0-13.88-0.78-20.48-2.23c-22.56-4.93-42.17-17.82-55.73-35.57c-0.15,0.17-0.28,0.34-0.44,0.5c-1.75,1.8-3.9,3.05-6.25,3.69
            c13.97,18.55,34,32.28,57.12,38.22c8.24,2.11,16.87,3.24,25.77,3.24c9.39,0,18.48-1.28,27.14-3.63
            c22.5-6.11,41.99-19.6,55.67-37.73c-2.12-0.62-4.08-1.76-5.7-3.34C578.91,355.44,578.61,355.12,578.33,354.79z"/>
        <path class="st9" d="M502.11,207.58c2.56,0,5.11-0.99,7.03-2.97c3.77-3.88,3.68-10.09-0.2-13.86c-1.9-1.85-4.37-2.77-6.83-2.77
            c-2.56,0-5.11,0.99-7.03,2.97c-3.77,3.88-3.68,10.09,0.2,13.86C497.19,206.66,499.65,207.58,502.11,207.58z"/>
        <path class="st9" d="M415.57,335.88c-2.56,0-5.11,0.99-7.03,2.97c-3.77,3.88-3.68,10.09,0.2,13.86c1.9,1.85,4.37,2.77,6.83,2.77
            c2.56,0,5.11-0.99,7.03-2.97c3.77-3.88,3.68-10.09-0.2-13.86C420.5,336.8,418.03,335.88,415.57,335.88z">
        </path>
        <path class="st9" d="M581.81,339.02c-3.77,3.88-3.68,10.09,0.2,13.86c1.9,1.85,4.37,2.77,6.83,2.77c2.56,0,5.11-0.99,7.03-2.97
            c3.77-3.88,3.68-10.09-0.2-13.86c-1.9-1.85-4.37-2.77-6.83-2.77C586.28,336.04,583.73,337.04,581.81,339.02z"/>
    </g>
    <g id="natlas-logo-globe">
        <path class="st7" d="M498.65,256.81c4.71,6.87,10.36,13.66,16.79,20.09l-13.35,13.95l-20.48-19.59
            C487.12,265.77,492.87,260.92,498.65,256.81z"/>
        <path class="st7" d="M520.93,271.16c-5.95-5.98-11.23-12.34-15.63-18.77c13.52-8.32,26.6-12.36,36.1-10.92
            c1.55,1.11,3.07,2.29,4.55,3.54L520.93,271.16z"/>
        <path class="st7" d="M526.69,276.63l25-26.13c1.34,1.44,2.61,2.93,3.8,4.45c1.85,9.4-1.59,22.56-9.23,36.37
            C539.62,287.26,532.99,282.3,526.69,276.63z"/>
        <path class="st7" d="M476.15,277.03l20.45,19.56l-14.68,15.34c-6.54-5.98-13.38-11.2-20.27-15.53
            C465.62,289.91,470.49,283.34,476.15,277.03z"/>
        <path class="st7" d="M475.87,265.77l-19.18-18.35c8.44-7.99,18.49-13.37,29.1-16.12c1.92,6.11,4.8,12.42,8.54,18.75
            C488.1,254.49,481.87,259.75,475.87,265.77z"/>
        <path class="st7" d="M563.3,267.79c4.94,10.65,6.94,22.35,5.98,33.86c-5.14-1.39-10.55-3.56-16.03-6.39
            C558.57,285.65,562,276.26,563.3,267.79z"/>
        <path class="st7" d="M493.65,229.76c11.63-1.57,23.6-0.1,34.62,4.45c-8.49,1.68-17.81,5.57-27.27,11.41
            C497.84,240.23,495.35,234.88,493.65,229.76z"/>
        <path class="st7" d="M487.64,317.45l14.7-15.36l20.5,19.61c-6.12,6-12.53,11.2-18.92,15.48
            C499.32,330.41,493.83,323.73,487.64,317.45z"/>
        <path class="st7" d="M528.36,315.99l-20.53-19.64l13.36-13.97c6.78,6.13,13.85,11.44,20.96,15.79
            C538.27,304.17,533.65,310.19,528.36,315.99z"/>
        <path class="st7" d="M442.09,324.3c-4.61-9.89-6.67-20.69-6.18-31.41c4.81,1.53,9.82,3.7,14.88,6.42
            C446.23,308.05,443.27,316.56,442.09,324.3z"/>
        <path class="st7" d="M549.13,302.12c6.46,3.36,12.85,5.87,19,7.44c-2.24,10.88-7.19,21.32-14.9,30.22l-19.12-18.3
            C539.92,315.15,544.94,308.62,549.13,302.12z"/>
        <path class="st7" d="M476.42,317.68l-22.77,23.8c-1.32-1.42-2.57-2.88-3.74-4.38c-1.73-8.79,1.16-20.89,7.8-33.73
            C464.08,307.39,470.42,312.21,476.42,317.68z"/>
        <path class="st7" d="M454.72,292.36c-6.08-3.28-12.13-5.83-17.97-7.54c1.9-11.33,6.74-22.26,14.51-31.59l19.13,18.3
            C464.25,278.35,458.99,285.38,454.72,292.36z"/>
        <path class="st7" d="M528.59,327.2l19.08,18.25c-9.09,8.28-19.96,13.62-31.35,15.98c-1.89-5.68-4.63-11.57-8.11-17.48
            C515.08,339.35,521.96,333.73,528.59,327.2z"/>
        <path class="st7" d="M482.14,323.2c5.72,5.82,10.79,11.97,15.04,18.17c-12.46,7.14-24.35,10.53-33.17,9.2
            c-1.58-1.12-3.12-2.32-4.62-3.6L482.14,323.2z"/>
        <path class="st7" d="M508.32,362.59c-10.52,0.89-21.22-0.7-31.14-4.78c7.6-1.51,15.88-4.8,24.31-9.67
            C504.36,353.04,506.66,357.9,508.32,362.59z"/>
        <linearGradient id="SVGID_7_" gradientUnits="userSpaceOnUse" x1="690.0775" y1="453.7439" x2="690.0775" y2="293.4882" gradientTransform="matrix(-0.7226 -0.6913 -0.6913 0.7226 1259.584 503.0654)">
            <stop  offset="0" style="stop-color: #0062b9;"/>
            <stop  offset="0.9987" style="stop-color: #ed1e79;"/>
        </linearGradient>
        <path class="st10" d="M444.77,240.6c-30.54,31.93-29.42,82.75,2.51,113.29c31.93,30.54,82.75,29.42,113.29-2.51
            c30.54-31.93,29.42-82.75-2.51-113.29C526.14,207.55,475.32,208.67,444.77,240.6z M494.34,250.05
            c-6.24,4.44-12.46,9.7-18.47,15.72l-19.18-18.35c8.44-7.99,18.49-13.37,29.1-16.12C487.72,237.4,490.6,243.72,494.34,250.05z
            M528.27,234.22c-8.49,1.68-17.81,5.57-27.27,11.41c-3.16-5.39-5.65-10.74-7.35-15.86C505.28,228.19,517.25,229.67,528.27,234.22z
            M521.19,282.38c6.78,6.13,13.85,11.44,20.96,15.79c-3.88,6-8.5,12.02-13.79,17.82l-20.53-19.64L521.19,282.38z M522.84,321.7
            c-6.12,6-12.53,11.2-18.92,15.48c-4.6-6.77-10.09-13.45-16.28-19.73l14.7-15.36L522.84,321.7z M481.92,311.94
            c-6.54-5.98-13.38-11.2-20.27-15.53c3.97-6.5,8.84-13.06,14.5-19.37l20.45,19.56L481.92,311.94z M481.61,271.26
            c5.5-5.49,11.26-10.34,17.04-14.45c4.71,6.87,10.36,13.66,16.79,20.09l-13.35,13.95L481.61,271.26z M541.4,241.47
            c1.55,1.11,3.07,2.29,4.55,3.54l-25.02,26.15c-5.95-5.98-11.23-12.34-15.63-18.77C518.82,244.07,531.89,240.02,541.4,241.47z
            M546.26,291.32c-6.64-4.06-13.27-9.02-19.57-14.69l25-26.13c1.34,1.44,2.61,2.93,3.8,4.45
            C557.33,264.35,553.9,277.52,546.26,291.32z M569.27,301.65c-5.14-1.39-10.55-3.56-16.03-6.39c5.33-9.61,8.76-19,10.06-27.47
            C568.24,278.43,570.24,290.13,569.27,301.65z M553.23,339.78l-19.12-18.3c5.81-6.33,10.84-12.86,15.03-19.36
            c6.46,3.36,12.85,5.87,19,7.44C565.9,320.44,560.94,330.88,553.23,339.78z M516.32,361.43c-1.89-5.68-4.63-11.57-8.11-17.48
            c6.87-4.61,13.75-10.22,20.38-16.76l19.08,18.25C538.57,353.74,527.71,359.08,516.32,361.43z M477.18,357.81
            c7.6-1.51,15.88-4.8,24.31-9.67c2.86,4.9,5.16,9.76,6.83,14.45C497.8,363.47,487.11,361.89,477.18,357.81z M464.02,350.57
            c-1.58-1.12-3.12-2.32-4.62-3.6l22.75-23.78c5.72,5.82,10.79,11.97,15.04,18.17C484.73,348.51,472.84,351.9,464.02,350.57z
            M457.72,303.36c6.36,4.03,12.7,8.85,18.71,14.32l-22.77,23.8c-1.32-1.42-2.57-2.88-3.74-4.38
            C448.18,328.3,451.07,316.2,457.72,303.36z M435.91,292.88c4.81,1.53,9.82,3.7,14.88,6.42c-4.56,8.74-7.52,17.25-8.7,24.99
            C437.49,314.41,435.42,303.61,435.91,292.88z M451.27,253.23l19.13,18.3c-6.15,6.82-11.41,13.85-15.68,20.83
            c-6.08-3.28-12.13-5.83-17.97-7.54C438.66,273.49,443.49,262.56,451.27,253.23z"/>
    </g>
</svg>
