<?xml version="1.0" standalone="no"?>
<!DOCTYPE svg PUBLIC "-//W3C//DTD SVG 20010904//EN"
 "http://www.w3.org/TR/2001/REC-SVG-20010904/DTD/svg10.dtd">
<svg version="1.0" xmlns="http://www.w3.org/2000/svg"
 width="300.000000pt" height="300.000000pt" viewBox="0 0 300.000000 300.000000"
 preserveAspectRatio="xMidYMid meet">
<metadata>
Created by potrace 1.11, written by Peter Selinger 2001-2013
</metadata>
<g transform="translate(0.000000,300.000000) scale(0.100000,-0.100000)"
fill="#000000" stroke="none">
<path d="M1310 2990 c-181 -25 -330 -73 -500 -161 -409 -211 -696 -600 -787
-1064 -24 -125 -24 -405 0 -530 29 -148 74 -279 143 -413 208 -408 583 -696
1037 -794 148 -32 446 -32 594 0 531 115 962 499 1128 1005 56 174 69 259 69
462 0 271 -42 452 -159 683 -206 405 -587 698 -1033 792 -111 24 -385 35 -492
20z m455 -151 c309 -62 601 -236 790 -472 208 -259 308 -540 308 -867 -1 -337
-117 -646 -337 -900 -202 -232 -510 -402 -816 -452 -96 -15 -324 -15 -420 0
-244 40 -498 160 -690 326 -228 199 -392 491 -446 796 -22 125 -22 334 1 465
94 542 499 967 1044 1096 177 43 379 45 566 8z"/>
<path d="M1428 2661 c-28 -25 -33 -36 -33 -76 0 -40 5 -51 33 -76 24 -22 42
-29 72 -29 30 0 48 7 72 29 28 25 33 36 33 76 0 40 -5 51 -33 76 -24 22 -42
29 -72 29 -30 0 -48 -7 -72 -29z"/>
<path d="M1225 2604 c-110 -27 -268 -98 -365 -164 -254 -173 -439 -468 -485
-777 -19 -123 -19 -202 -1 -323 14 -89 61 -260 72 -260 5 0 65 30 72 35 1 1
-9 41 -22 88 -119 412 16 847 347 1113 109 87 271 167 407 201 l105 25 -4 44
c-1 25 -8 44 -15 43 -6 0 -56 -11 -111 -25z"/>
<path d="M1650 2586 c0 -42 2 -46 28 -52 185 -40 348 -114 477 -217 191 -154
313 -352 371 -602 14 -60 18 -116 18 -225 -1 -142 -9 -186 -59 -355 -5 -17 1
-24 30 -38 20 -9 37 -17 40 -17 2 0 13 28 24 62 93 282 76 570 -49 836 -55
117 -122 214 -215 311 -173 180 -364 282 -632 336 l-33 7 0 -46z"/>
<path d="M1387 2379 c-217 -30 -441 -158 -571 -328 -135 -176 -195 -370 -183
-594 7 -132 25 -202 78 -315 110 -238 300 -401 556 -479 77 -23 105 -26 233
-27 111 0 161 4 215 18 307 82 534 297 630 596 36 112 46 314 21 433 -57 275
-246 512 -503 629 -132 59 -330 88 -476 67z m298 -165 c79 -20 85 -29 33 -42
-24 -6 -84 -31 -135 -56 -72 -35 -94 -42 -102 -32 -13 15 -61 123 -61 136 0
23 162 20 265 -6z m-346 -61 c13 -32 34 -77 47 -99 l24 -42 -25 -16 c-13 -9
-59 -46 -101 -83 l-76 -66 -98 98 -99 98 47 37 c62 49 129 87 194 110 29 11
56 19 59 20 3 0 16 -26 28 -57z m614 -71 c16 -18 10 -26 -114 -156 -152 -158
-128 -156 -235 -21 l-64 79 52 30 c131 76 322 112 361 68z m133 -159 c10 -53
-12 -153 -56 -255 -21 -49 -41 -93 -44 -96 -4 -3 -27 9 -51 26 -25 18 -48 32
-52 32 -3 0 -29 20 -58 45 l-52 44 136 141 c135 140 136 141 153 120 10 -12
20 -38 24 -57z m-972 -188 c-44 -51 -122 -155 -127 -168 -2 -6 -41 6 -89 26
-47 20 -91 37 -97 37 -36 0 57 242 122 316 l20 23 103 -97 102 -97 -34 -40z
m463 50 l61 -72 -68 -74 -68 -74 -73 70 c-40 39 -88 87 -107 108 -41 44 -42
41 63 129 l70 58 30 -37 c17 -20 58 -69 92 -108z m651 -233 l5 -103 -54 21
c-30 12 -67 26 -82 32 -16 6 -26 15 -23 22 54 125 75 181 86 226 l14 55 24
-75 c17 -51 26 -108 30 -178z m-899 54 l104 -105 -38 -43 c-21 -24 -56 -59
-79 -80 l-41 -36 -30 28 c-16 15 -64 52 -106 82 l-76 54 54 80 c56 80 92 124
102 124 4 0 53 -47 110 -104z m455 -14 c39 -32 87 -68 106 -82 19 -13 37 -25
39 -27 3 -2 -73 -105 -126 -171 -10 -12 -29 1 -120 83 -59 54 -110 102 -112
107 -3 9 127 148 138 148 2 0 36 -26 75 -58z m-917 -91 l62 -30 -23 -53 c-13
-29 -32 -80 -42 -113 -10 -33 -21 -64 -25 -68 -8 -10 -32 62 -48 141 -15 74
-14 152 2 152 6 0 40 -13 74 -29z m821 -305 c-18 -16 -49 -43 -68 -60 -19 -18
-49 -42 -66 -54 l-32 -22 -73 93 c-40 50 -79 100 -87 109 -12 15 -5 25 64 98
l78 81 108 -108 109 -108 -33 -29z m380 215 c20 -10 63 -27 94 -37 67 -20 66
-18 16 -142 -30 -71 -103 -192 -116 -192 -4 1 -51 43 -106 94 l-98 93 65 81
c36 44 71 90 77 101 13 26 21 26 68 2z m-930 -79 c37 -29 67 -57 67 -61 0 -5
-53 -64 -119 -131 l-118 -123 -20 24 c-16 20 -18 36 -15 104 4 78 18 130 59
227 l20 48 30 -18 c16 -9 60 -41 96 -70z m199 -189 c27 -32 62 -75 77 -95 l27
-37 -38 -19 c-72 -37 -183 -71 -248 -78 -60 -6 -68 -5 -90 16 l-24 23 117 123
c64 67 120 123 124 123 3 1 28 -25 55 -56z m562 -87 l93 -93 -66 -48 c-66 -47
-172 -97 -233 -110 -31 -6 -32 -6 -74 82 -24 48 -44 90 -46 93 -2 3 14 15 35
27 20 12 68 49 106 82 38 34 74 61 80 61 6 0 53 -42 105 -94z m-370 -190 c17
-35 31 -69 31 -75 0 -25 -233 -1 -290 29 -13 8 -13 9 0 14 84 30 131 50 165
70 22 13 45 25 52 25 7 1 26 -28 42 -63z"/>
<path d="M491 1054 c-86 -61 -42 -194 63 -194 63 1 106 45 106 110 0 48 -56
100 -107 100 -21 0 -49 -7 -62 -16z"/>
<path d="M2398 1054 c-62 -33 -73 -117 -22 -167 35 -35 75 -42 119 -21 62 29
81 92 45 152 -31 51 -89 65 -142 36z"/>
<path d="M626 835 l-39 -24 104 -104 c235 -235 481 -339 804 -341 205 0 353
35 532 128 116 61 203 127 302 232 l82 87 -38 22 -37 23 -81 -82 c-44 -45
-110 -103 -146 -129 -92 -65 -239 -133 -356 -164 -86 -23 -117 -26 -253 -26
-135 0 -168 3 -253 26 -117 31 -264 99 -356 164 -36 26 -102 84 -146 129 l-81
82 -38 -23z"/>
</g>
</svg>
